HIERARCHY
ROOT Hips
{
	OFFSET -0.001795 -0.223333 0.028219
	CHANNELS 6 Xposition Yposition Zposition Zrotation Yrotation Xrotation 
	JOINT LeftUpLeg
	{
		OFFSET 0.069520 -0.091406 -0.006815
		CHANNELS 3 Zrotation Yrotation Xrotation
		JOINT LeftLeg
		{
			OFFSET 0.034277 -0.375199 -0.004496
			CHANNELS 3 Zrotation Yrotation Xrotation
			JOINT LeftFoot
			{
				OFFSET -0.013596 -0.397961 -0.043693
				CHANNELS 3 Zrotation Yrotation Xrotation
				JOINT LeftToe
				{
					OFFSET 0.026358 -0.055791 0.119288
					CHANNELS 3 Zrotation Yrotation Xrotation
					End Site
					{
						OFFSET 0.000000 0.000000 0.000000
					}
				}
			}
		}
	}
	JOINT RightUpLeg
	{
		OFFSET -0.067670 -0.090522 -0.004320
		CHANNELS 3 Zrotation Yrotation Xrotation
		JOINT RightLeg
		{
			OFFSET -0.038290 -0.382569 -0.008850
			CHANNELS 3 Zrotation Yrotation Xrotation
			JOINT RightFoot
			{
				OFFSET 0.015774 -0.398415 -0.042312
				CHANNELS 3 Zrotation Yrotation Xrotation
				JOINT RightToe
				{
					OFFSET -0.025372 -0.048144 0.123348
					CHANNELS 3 Zrotation Yrotation Xrotation
					End Site
					{
						OFFSET 0.000000 0.000000 0.000000
					}
				}
			}
		}
	}
	JOINT Spine
	{
		OFFSET -0.002533 0.108963 -0.026696
		CHANNELS 3 Zrotation Yrotation Xrotation
		JOINT Spine1
		{
			OFFSET 0.005487 0.135180 0.001092
			CHANNELS 3 Zrotation Yrotation Xrotation
			JOINT Spine2
			{
				OFFSET 0.001457 0.052922 0.025425
				CHANNELS 3 Zrotation Yrotation Xrotation
				JOINT Neck
				{
					OFFSET -0.002778 0.213870 -0.042857
					CHANNELS 3 Zrotation Yrotation Xrotation
					JOINT Head
					{
						OFFSET 0.005152 0.064970 0.051349
						CHANNELS 3 Zrotation Yrotation Xrotation
						End Site
						{
							OFFSET 0.000000 0.000000 0.000000
						}
					}
				}
				JOINT LeftShoulder
				{
					OFFSET 0.078845 0.121749 -0.034090
					CHANNELS 3 Zrotation Yrotation Xrotation
					JOINT LeftArm
					{
						OFFSET 0.090977 0.030469 -0.008868
						CHANNELS 3 Zrotation Yrotation Xrotation
						JOINT LeftForeArm
						{
							OFFSET 0.259612 -0.012772 -0.027456
							CHANNELS 3 Zrotation Yrotation Xrotation
							JOINT LeftHand
							{
								OFFSET 0.249234 0.008986 -0.001171
								CHANNELS 3 Zrotation Yrotation Xrotation
								End Site
								{
									OFFSET 0.000000 0.000000 0.000000
								}
							}
						}
					}
				}
				JOINT RightShoulder
				{
					OFFSET -0.081759 0.118833 -0.038615
					CHANNELS 3 Zrotation Yrotation Xrotation
					JOINT RightArm
					{
						OFFSET -0.096012 0.032551 -0.009143
						CHANNELS 3 Zrotation Yrotation Xrotation
						JOINT RightForeArm
						{
							OFFSET -0.253742 -0.013329 -0.021401
							CHANNELS 3 Zrotation Yrotation Xrotation
							JOINT RightHand
							{
								OFFSET -0.255298 0.007772 -0.005559
								CHANNELS 3 Zrotation Yrotation Xrotation
								End Site
								{
									OFFSET 0.000000 0.000000 0.000000
								}
							}
						}
					}
				}
			}
		}
	}
}
MOTION
Frames: 14
Frame Time: 0.050000
0.001421 0.951214 -0.026605 2.222375 0.086725 10.133315 5.512987 -0.625543 -9.821773 -2.675296 0.292241 -0.878280 0.002490 5.775632 16.002061 0.000000 0.000000 0.000000 -4.191223 0.670354 -7.393009 -5.965508 0.084404 -5.678879 -4.019418 -13.359502 17.805285 0.000000 0.000000 0.000000 5.662883 0.300501 -6.084747 0.506308 -0.142385 -2.887658 -7.960008 1.131343 -0.121731 11.416873 -7.501111 -6.054167 0.000000 0.000000 0.000000 -3.590921 -1.746082 0.143170 -59.047423 -43.112369 16.255158 -174.957321 -80.518645 177.524723 0.000000 0.000000 0.000000 6.031890 -14.766874 -6.369709 78.996346 13.602554 3.690760 -166.705801 66.711462 -152.380583 0.000000 0.000000 0.000000 
0.000980 0.951658 -0.027319 2.063760 -0.749799 10.165531 5.588728 -0.593458 -9.436703 -2.596592 0.295193 -1.443721 0.375229 6.292306 16.291981 0.000000 0.000000 0.000000 -3.905301 0.706449 -7.768312 -6.241894 0.110051 -5.500689 -3.564108 -12.748934 17.764960 0.000000 0.000000 0.000000 5.887545 0.261435 -5.559229 0.623514 -0.186848 -3.265552 -8.055954 1.730365 -0.031369 11.953392 -7.922576 -5.938909 0.000000 0.000000 0.000000 -3.996079 -0.746584 -0.280407 -59.183284 -38.499331 13.533240 -158.466549 -80.408795 157.931651 0.000000 0.000000 0.000000 5.742416 -15.885728 -6.754992 79.767874 12.465216 2.943299 -172.110057 66.713074 -160.470853 0.000000 0.000000 0.000000 
0.000544 0.951946 -0.028001 1.814388 -1.030793 10.174552 5.716068 -0.581993 -9.410303 -2.338110 0.272460 -1.482386 0.528841 6.499669 16.365855 0.000000 0.000000 0.000000 -3.455225 0.733049 -7.998815 -6.540808 0.142374 -5.303762 -3.382852 -12.511131 17.807532 0.000000 0.000000 0.000000 6.106055 0.237357 -5.273753 0.498281 -0.140531 -3.071867 -8.030302 1.414086 -0.060259 12.063707 -7.985055 -6.039522 0.000000 0.000000 0.000000 -4.296286 0.951978 -0.924396 -60.514707 -34.607160 11.707252 -145.225180 -79.592783 142.242964 0.000000 0.000000 0.000000 4.873375 -16.414614 -6.777786 80.848495 11.313490 2.000683 -176.820109 66.695097 -168.046878 0.000000 0.000000 0.000000 
0.000169 0.952263 -0.028625 1.680907 -1.589674 10.213935 5.693617 -0.559385 -9.010065 -2.098276 0.262037 -2.144856 0.767443 6.835435 16.616164 0.000000 0.000000 0.000000 -3.303806 0.756333 -8.227319 -6.584077 0.144626 -5.265910 -3.072141 -12.099764 17.811151 0.000000 0.000000 0.000000 6.002880 0.208976 -4.932771 0.623639 -0.179759 -3.733259 -7.846462 1.270423 0.308328 12.304639 -8.136381 -6.255919 0.000000 0.000000 0.000000 -4.065548 1.596669 -1.104839 -61.724467 -31.401374 10.144676 -140.485326 -79.544174 137.016962 0.000000 0.000000 0.000000 3.977119 -17.252716 -6.897004 81.888140 10.110658 0.919261 178.020550 66.629395 -176.269200 0.000000 0.000000 0.000000 
-0.000111 0.952420 -0.029350 1.590046 -2.030766 10.131270 5.812096 -0.537049 -8.763471 -2.176112 0.274278 -2.356998 0.967486 7.100413 16.751348 0.000000 0.000000 0.000000 -3.325485 0.780032 -8.523771 -6.392671 0.172538 -4.827878 -2.866129 -11.804967 17.633508 0.000000 0.000000 0.000000 5.908946 0.187035 -4.658006 0.641779 -0.184790 -3.958595 -7.832916 0.929272 0.680376 12.098936 -8.046310 -6.168584 0.000000 0.000000 0.000000 -4.167130 2.397702 -1.388027 -63.548223 -29.824595 9.650677 -138.315811 -80.528441 135.610469 0.000000 0.000000 0.000000 4.017501 -17.383458 -6.961469 82.646732 9.453030 0.154250 173.609122 66.469479 176.606303 0.000000 0.000000 0.000000 
-0.000383 0.952426 -0.030372 1.340540 -2.924747 10.015711 5.887153 -0.504214 -8.351336 -1.954351 0.262722 -2.657668 1.420695 7.665924 16.857146 0.000000 0.000000 0.000000 -3.157520 0.806272 -8.753687 -6.281557 0.177591 -4.643004 -2.399977 -11.156227 17.454853 0.000000 0.000000 0.000000 5.888172 0.162653 -4.317747 0.688838 -0.211367 -4.020124 -7.614350 0.960998 0.699681 12.394461 -8.331746 -5.927555 0.000000 0.000000 0.000000 -3.991321 3.026313 -1.576974 -65.100960 -28.381670 9.152286 -143.575505 -81.212084 142.301649 0.000000 0.000000 0.000000 3.808323 -17.778019 -7.057579 83.605314 8.962386 -0.419454 170.984022 66.710649 172.286424 0.000000 0.000000 0.000000 
-0.000787 0.952437 -0.031525 1.048755 -3.481810 9.946247 6.125821 -0.469972 -7.950857 -1.859764 0.264991 -3.130535 1.696257 8.018399 16.984050 0.000000 0.000000 0.000000 -2.920405 0.842714 -9.113731 -6.146530 0.207742 -4.184903 -2.119202 -10.754199 17.279425 0.000000 0.000000 0.000000 5.874307 0.146146 -4.094756 0.577075 -0.162897 -4.294636 -7.461805 0.737692 1.011464 12.551269 -8.647488 -5.234601 0.000000 0.000000 0.000000 -3.960863 3.799086 -1.836723 -66.469665 -27.617902 9.012729 -146.707961 -82.440092 146.928528 0.000000 0.000000 0.000000 3.888434 -17.942377 -7.143995 84.956614 9.233566 -0.456532 169.596976 68.544037 170.271468 0.000000 0.000000 0.000000 
-0.001258 0.952311 -0.032589 0.831921 -4.194507 9.916279 6.508554 -0.437905 -7.831581 -2.174108 0.295177 -3.129955 2.070137 8.480246 17.053912 0.000000 0.000000 0.000000 -2.853094 0.862059 -9.278888 -5.866082 0.184248 -4.194032 -1.751419 -10.234109 17.147679 0.000000 0.000000 0.000000 5.791835 0.152206 -4.110540 0.607635 -0.187365 -4.069249 -7.454237 1.055990 1.085230 12.940896 -9.169175 -4.334082 0.000000 0.000000 0.000000 -3.763892 4.660193 -2.125815 -67.271336 -25.898981 8.048995 -144.412221 -81.898582 144.081121 0.000000 0.000000 0.000000 4.195014 -18.140324 -7.301921 86.009678 9.196662 -0.524926 166.520516 71.106792 166.395231 0.000000 0.000000 0.000000 
-0.001651 0.952328 -0.033240 0.579017 -4.842371 9.813861 6.678562 -0.408338 -7.488453 -2.058553 0.290979 -3.336114 2.402525 8.893120 17.141193 0.000000 0.000000 0.000000 -2.549220 0.885993 -9.441673 -5.928864 0.202953 -3.979602 -1.409179 -9.751955 17.037266 0.000000 0.000000 0.000000 5.705560 0.136520 -3.883889 0.369838 -0.099981 -3.683141 -7.088682 1.323160 0.876279 13.240175 -9.487767 -3.917379 0.000000 0.000000 0.000000 -4.082151 6.178344 -2.737490 -66.620410 -22.603886 5.894582 -144.625922 -79.045831 142.608252 0.000000 0.000000 0.000000 4.728582 -18.514703 -7.588455 86.216513 8.850103 -0.867341 162.046991 74.699746 161.315728 0.000000 0.000000 0.000000 
-0.001837 0.952363 -0.033568 0.524114 -5.582549 9.850278 6.925992 -0.386829 -7.573251 -2.492482 0.328831 -3.035826 2.782106 9.364489 17.240986 0.000000 0.000000 0.000000 -2.501634 0.896602 -9.501863 -5.965544 0.177353 -4.233948 -1.013425 -9.215189 17.027885 0.000000 0.000000 0.000000 5.627739 0.144747 -3.929662 -0.016124 0.055970 -3.479903 -6.869316 1.774817 1.127533 13.672906 -9.768233 -4.172945 0.000000 0.000000 0.000000 -4.225959 8.138445 -3.495911 -65.440180 -19.104202 3.582976 -143.178933 -75.952855 138.899704 0.000000 0.000000 0.000000 4.637225 -19.031902 -7.766073 86.403403 7.551022 -2.010371 152.796752 76.079946 150.106511 0.000000 0.000000 0.000000 
-0.001866 0.952424 -0.033752 0.335590 -6.235706 9.826485 7.210623 -0.364792 -7.764163 -2.743567 0.349244 -2.413361 3.151462 9.816196 17.226363 0.000000 0.000000 0.000000 -2.198443 0.923311 -9.690459 -6.197892 0.201776 -4.068501 -0.666632 -8.736136 16.970427 0.000000 0.000000 0.000000 5.484880 0.118224 -3.614717 -0.120697 0.095361 -3.421233 -6.574830 2.683794 1.397230 14.481366 -10.380959 -4.242492 0.000000 0.000000 0.000000 -3.568544 10.525935 -4.265537 -64.521128 -14.740057 0.823485 -143.588574 -71.482691 136.015195 0.000000 0.000000 0.000000 4.708776 -19.989526 -8.159771 85.845040 5.994545 -3.140689 143.745112 75.810646 138.934296 0.000000 0.000000 0.000000 
-0.001796 0.952573 -0.033981 0.191727 -6.908392 10.016774 7.290152 -0.356373 -8.088938 -2.734280 0.347412 -1.970957 3.530587 10.290771 17.311381 0.000000 0.000000 0.000000 -2.117414 0.950918 -9.927847 -6.144183 0.177016 -4.248648 -0.296424 -8.256248 17.041938 0.000000 0.000000 0.000000 5.541756 0.104881 -3.475817 -0.342164 0.185420 -3.440975 -6.363708 3.592814 1.661025 14.886928 -10.461683 -5.121790 0.000000 0.000000 0.000000 -2.790121 12.933745 -4.975151 -63.646333 -10.462927 -1.743098 -143.135024 -68.123503 132.602711 0.000000 0.000000 0.000000 4.943117 -20.870281 -8.574027 85.188172 5.362081 -3.476929 138.442127 74.924748 132.014545 0.000000 0.000000 0.000000 
-0.001652 0.952924 -0.034181 0.155310 -6.981601 10.052026 7.476953 -0.347653 -8.236618 -3.015660 0.376380 -1.776967 3.555075 10.328550 17.400466 0.000000 0.000000 0.000000 -2.033306 0.948964 -9.879654 -6.240236 0.164461 -4.448303 -0.213744 -8.186119 17.220394 0.000000 0.000000 0.000000 5.749268 0.085137 -3.294758 -0.638929 0.311849 -3.703553 -6.227435 4.187552 2.054234 14.626701 -10.261407 -5.232974 0.000000 0.000000 0.000000 -2.051476 14.680855 -5.419954 -62.988888 -6.777450 -3.885266 -139.416360 -65.541281 125.112952 0.000000 0.000000 0.000000 4.733989 -21.132044 -8.623296 84.628004 5.817857 -2.919281 138.495816 74.244557 131.851082 0.000000 0.000000 0.000000 
-0.001434 0.953320 -0.034468 0.187655 -6.853082 10.334356 7.680298 -0.349573 -8.684800 -3.413206 0.417955 -1.633404 3.476532 10.246484 17.540002 0.000000 0.000000 0.000000 -2.009407 0.963293 -10.023153 -6.366910 0.144987 -4.742761 -0.231821 -8.280854 17.499047 0.000000 0.000000 0.000000 5.728884 0.092229 -3.421236 -0.443141 0.230428 -3.844988 -6.651930 4.954074 2.009841 14.898137 -10.562807 -4.865656 0.000000 0.000000 0.000000 -1.626500 14.952012 -5.392361 -62.479660 -4.213616 -5.401449 -136.337274 -64.301605 119.202357 0.000000 0.000000 0.000000 4.919610 -20.976150 -8.612807 83.692695 7.164731 -1.439408 145.060026 73.634487 140.106944 0.000000 0.000000 0.000000 
